# xmcd CD database file generated by OrangeCD 4.2
#
# Track frame offsets:
#	150
#	12960
#	25370
#	36995
#	48535
#	61092
#	72957
#	86327
#	100325
#	110170
#	122157
#	134235
#	147012
#	159875
#	173020
#	182955
#	197500
#	211767
#	224972
#	238277
#	250685
#	263600
#	277290
#	288847
#
# Disc length: 4005 seconds
#
# Revision: 0
# Processed by: cddbd v1.4PL0 Copyright (c) Steve Scherf et al.
# Submitted via: OrangeCD 4.2
#
DISCID=710fa318
DTITLE=Howlin' Wolf - The Real Folk Blues/More Real Folk Blues
DYEAR=2002
DGENRE=Blues
TTITLE0=Killing Floor
TTITLE1=Louise
TTITLE2=Poor Boy
TTITLE3=Sittin' On Top Of The World
TTITLE4=Nature
TTITLE5=My Country Sugar Mama
TTITLE6=Tail Dragger
TTITLE7=Three Hundred Pounds Of Joy
TTITLE8=The Natchez Burnin'
TTITLE9=Built For Comfort
TTITLE10=Ooh Baby, Hold Me
TTITLE11=Tell Me What I've Done
TTITLE12=Just My Kind
TTITLE13=I've Got A Woman
TTITLE14=Work For Your Money
TTITLE15=I'll Be Around
TTITLE16=You Can't Be Beat
TTITLE17=No Place To Go (You Gonna Wreck My Life)
TTITLE18=I Love My Baby
TTITLE19=Neighbors
TTITLE20=I'm The Wolf
TTITLE21=Rockin' Daddy
TTITLE22=Who Will Be Next
TTITLE23=I Have A Little Girl
EXTD=
EXTT0=
EXTT1=
EXTT2=
EXTT3=
EXTT4=
EXTT5=
EXTT6=
EXTT7=
EXTT8=
EXTT9=
EXTT10=
EXTT11=
EXTT12=
EXTT13=
EXTT14=
EXTT15=
EXTT16=
EXTT17=
EXTT18=
EXTT19=
EXTT20=
EXTT21=
EXTT22=
EXTT23=
PLAYORDER=
